# xmcd
#
# Track frame offsets: 
#        150
#        34245
#        58605
#        84120
#        128841
#        143291
#        160114
#        173827
#        194712
#        213621
#
# Disc length: 3050 seconds
#
# Revision: 1
# Processed by: cddbd v1.5.2PL0 Copyright (c) Steve Scherf et al.
# Submitted via: ExactAudioCopy v1.0b3
#
DISCID=840be80a
DTITLE=Miles Davis - Dig
DYEAR=2006
DGENRE=Jazz
TTITLE0=Dig
TTITLE1=It's Only Papermoon
TTITLE2=Denial
TTITLE3=Bluing
TTITLE4=Donna
TTITLE5=Yesterdays
TTITLE6=Chance It
TTITLE7=How Deep Is The Ocean
TTITLE8=Dear Old Stockholm
TTITLE9=Woody 'N' You
EXTD=
EXTT0=
EXTT1=
EXTT2=
EXTT3=
EXTT4=
EXTT5=
EXTT6=
EXTT7=
EXTT8=
EXTT9=
PLAYORDER=
